<svg id="Layer_1" data-name="Layer 1" xmlns="http://www.w3.org/2000/svg" viewBox="0 0 485.28 346.31"><defs><style>.cls-1{fill:#40c776;}.cls-1,.cls-2{stroke:#000;stroke-miterlimit:10;}.cls-2{fill:none;}.cls-3{font-size:76.77px;}.cls-3,.cls-4{fill:#fff;font-family:FarMorvarid, "Far.Morvarid";}.cls-4{font-size:76.77px;}</style></defs><path class="cls-1" d="M435.71,37.61V295.48c0,5.44-3.64,10.11-8.62,11L262.42,337.76c-6.39,1.21-12.24-4.07-12.24-11v1.34c0,6.28-5.26,11-11,9.94L72.39,306.37a9.93,9.93,0,0,1-7.75-9.94V36.25c0-6.26,5.27-11,11-9.92L242.43,58a9.9,9.9,0,0,1,7.75,9.93v1a11,11,0,0,1,8.61-11.05L423.47,26.55C429.85,25.35,435.71,30.63,435.71,37.61Z"/><line class="cls-2" x1="250.18" y1="68.84" x2="250.18" y2="326.72"/><text class="cls-3" transform="matrix(1.01, 0.19, -0.16, 0.99, 64.64, 187.62)">تسود</text><text class="cls-4" transform="matrix(1.01, -0.19, 0.16, 0.99, 276.35, 213.84)">باتک</text><line class="cls-2" x1="82.98" y1="28.43" x2="110.85" y2="8.16"/><line class="cls-2" x1="250.86" y1="50.26" x2="110.85" y2="8.16"/><line class="cls-2" x1="106.56" y1="11.27" x2="250.8" y2="51.66"/><line class="cls-2" x1="101.05" y1="15.29" x2="250.53" y2="53.18"/><line class="cls-2" x1="95.33" y1="19.45" x2="250.57" y2="55.82"/><line class="cls-2" x1="90.02" y1="23.31" x2="249.73" y2="58.68"/><line class="cls-2" x1="415.95" y1="28.8" x2="388.16" y2="8.94"/><line class="cls-2" x1="248.58" y1="50.18" x2="388.16" y2="8.94"/><line class="cls-2" x1="392.43" y1="12" x2="248.64" y2="51.55"/><line class="cls-2" x1="397.93" y1="15.93" x2="248.9" y2="53.04"/><line class="cls-2" x1="403.64" y1="20" x2="248.87" y2="55.63"/><line class="cls-2" x1="408.93" y1="23.79" x2="249.71" y2="58.42"/></svg>